:SAMPLES-PER-SECOND 30
:FULLY-SPECIFIED
:DEGREES
728
root  80.5186 39.4701 1.63493 -121.592 -87.627 122.049
RightUpLeg  -0.795711 -7.31826 -3.43921
RightLeg  5.03811 6.60773 -0.171163
RightFoot  -4.65836 -0.00681932 -0.450212
RightToes  3.49245e-010 0 -3.6325e-017
Spine  7.94022 1.15021 -0.987319
Spine1  -9.72276 0.941509 2.13841
HEad  -3.72405 -37.6891 1.22596
LeftShoulder1  0.634799 -0.377142 -8.9144
LeftArm  -16.2 2.71649 -6.69472
LeftForeArm  11.4463 -1.62253 -1.26513
LeftHand  0.000758618 7.44035 2.19232
RightShoulder  0.488007 0.300891 5.00476
RightArm  -1.50126 2.73326 3.11775
RightForeArm  5.3317 3.01886 0.41073
RightHand  -0.118935 6.15373 -1.51491
LeftUpLeg  0.107703 6.83083 4.18508
LeftLeg  -0.689558 3.00959 0.399603
LeftFoot  1.03643 0.290327 -2.79549
LeftToes  -5.6298e-010 8.41567e-011 -1.83319e-011
729
root  80.4783 39.4907 1.65794 -130.357 -87.435 130.818
RightUpLeg  -0.697073 -7.17282 -3.36185
RightLeg  4.84955 6.88367 -0.262555
RightFoot  -4.52005 -0.00373321 -0.489797
RightToes  3.49245e-010 0 -3.6325e-017
Spine  8.54918 1.29733 -0.780507
Spine1  -10.8149 1.14846 1.59775
HEad  -2.31685 -37.323 0.79651
LeftShoulder1  0.665418 -0.479404 -9.30767
LeftArm  -16.4858 4.19966 -6.59081
LeftForeArm  12.3264 -4.11632 -1.20007
LeftHand  0.0151819 7.70568 2.64391
RightShoulder  0.507701 0.261082 5.75745
RightArm  -1.79628 2.14597 3.00983
RightForeArm  2.97279 4.6908 0.441196
RightHand  -0.160219 6.56772 -1.90488
LeftUpLeg  0.492988 6.95996 4.26472
LeftLeg  -1.16388 3.27355 0.334291
LeftFoot  1.18672 0.293157 -2.85057
LeftToes  -5.6298e-010 8.41567e-011 -1.83319e-011
730
root  80.4305 39.4981 1.69108 -131.552 -87.4864 132.103
RightUpLeg  -0.684472 -7.0887 -3.30547
RightLeg  4.80276 6.87836 -0.319114
RightFoot  -4.48644 -0.0188422 -0.249553
RightToes  3.49245e-010 0 -3.6325e-017
Spine  8.54157 1.26175 -0.416591
Spine1  -10.9537 1.18286 0.98969
HEad  -1.79358 -36.9287 1.48363
LeftShoulder1  0.637817 -0.187578 -9.94864
LeftArm  -17.7851 5.30734 -7.40472
LeftForeArm  13.0456 -7.12807 -0.724986
LeftHand  0.000388116 7.31982 2.68922
RightShoulder  0.511018 0.00425527 6.98986
RightArm  -2.41111 1.54027 3.42141
RightForeArm  -0.305716 6.28379 0.424249
RightHand  -0.233255 6.48741 -2.63728
LeftUpLeg  0.668773 6.98023 4.28473
LeftLeg  -1.60741 3.27818 0.315228
LeftFoot  1.35163 0.279909 -2.64993
LeftToes  -5.6298e-010 8.41567e-011 -1.83319e-011
731
root  80.3787 39.4911 1.74609 -128.618 -87.4596 129.251
RightUpLeg  -0.688249 -7.15798 -3.48608
RightLeg  4.75929 6.85163 -0.380218
RightFoot  -4.61862 -0.0314241 -0.0511423
RightToes  3.49245e-010 0 -3.6325e-017
Spine  8.05546 1.25794 -0.0685027
Spine1  -10.2679 1.25069 0.372126
HEad  -1.58687 -37.5334 1.50158
LeftShoulder1  0.640803 0.116537 -11.7542
LeftArm  -19.2533 6.43691 -8.17466
LeftForeArm  13.377 -11.2979 -0.624579
LeftHand  -0.00564415 4.75793 4.14032
RightShoulder  0.467953 -0.508541 8.19716
RightArm  -3.18523 0.718048 4.70832
RightForeArm  -1.21904 8.29331 0.320518
RightHand  -0.216979 7.99129 -2.22983
LeftUpLeg  0.622089 6.75145 3.99647
LeftLeg  -1.60231 3.45092 0.437745
LeftFoot  1.28672 0.272221 -2.53482
LeftToes  -5.6298e-010 8.41567e-011 -1.83319e-011
732
root  80.3302 39.4951 1.77204 -135.191 -87.3234 135.888
RightUpLeg  -0.751149 -7.04138 -3.37691
RightLeg  4.80352 7.00106 -0.416895
RightFoot  -4.55663 -0.0245381 -0.15738
RightToes  3.49245e-010 0 -3.6325e-017
Spine  7.53796 1.30304 0.407302
Spine1  -9.28123 1.38537 -0.340549
HEad  -0.552684 -37.2535 0.94141
LeftShoulder1  0.587709 0.665251 -13.7777
LeftArm  -21.0152 7.93499 -9.38052
LeftForeArm  15.5153 -16.0002 -1.47312
LeftHand  -0.0843078 0.354664 2.47055
RightShoulder  0.423475 -1.04874 10.0652
RightArm  -3.44865 0.403959 6.40029
RightForeArm  0.274538 10.2954 0.404246
RightHand  -0.149481 8.76039 -1.73013
LeftUpLeg  0.541047 6.84446 4.10955
LeftLeg  -1.2653 3.60089 0.428571
LeftFoot  1.08464 0.281299 -2.68034
LeftToes  -5.6298e-010 8.41567e-011 -1.83319e-011
733
root  80.2841 39.4965 1.79582 -140.033 -87.1061 140.793
RightUpLeg  -0.884609 -6.90954 -3.32423
RightLeg  4.96668 7.20182 -0.481621
RightFoot  -4.52229 -0.0252521 -0.147748
RightToes  3.49245e-010 0 -3.6325e-017
Spine  6.63518 1.32415 0.681802
Spine1  -7.56101 1.47251 -0.769172
HEad  -0.498925 -36.8634 2.12635
LeftShoulder1  0.44704 1.55927 -16.1925
LeftArm  -23.4257 9.41482 -11.0387
LeftForeArm  17.8514 -20.8357 -3.11726
LeftHand  -0.00836865 6.10718 5.60906
RightShoulder  0.350271 -1.68439 12.3612
RightArm  -4.16784 0.752196 8.61763
RightForeArm  3.46067 11.5608 0.415278
RightHand  0.0550404 11.2137 -0.0697696
LeftUpLeg  0.531315 6.86815 4.10574
LeftLeg  -1.12621 3.87398 0.441757
LeftFoot  1.08909 0.282146 -2.64974
LeftToes  -5.6298e-010 8.41567e-011 -1.83319e-011
